<svg id="Layer_1" data-name="Layer 1" xmlns="http://www.w3.org/2000/svg" viewBox="0 0 40.336 48.4"><defs><style>.cls-1{fill:#fff;}</style></defs><path class="cls-1" d="M32.853,18.161a3.0571,3.0571,0,0,0-2.778,4.319l-6.214,6.246a2.9641,2.9641,0,0,0-1.3-.289,2.9,2.9,0,0,0-1.285.289L18.738,26.19a3.049,3.049,0,1,0-5.813-1.285,3.2137,3.2137,0,0,0,.337,1.413l-4.3,4.239a3.048,3.048,0,1,0,1.574,2.665,2.9836,2.9836,0,0,0-.209-1.076l4.48-4.416a3.1125,3.1125,0,0,0,1.172.225,3.2073,3.2073,0,0,0,1.3-.289L19.8,30.187a2.9675,2.9675,0,0,0-.289,1.3,3.051,3.051,0,0,0,6.1,0,2.9485,2.9485,0,0,0-.289-1.285l6.214-6.246a2.9658,2.9658,0,0,0,1.3.289,3.043,3.043,0,0,0,.016-6.086ZM7.483,34.186a.9635.9635,0,1,0-.001,0Zm8.494-8.318a.963.963,0,1,1,.963-.963.9631.9631,0,0,1-.963.963Zm6.583,6.583a.9635.9635,0,1,1,0,.001ZM32.853,22.174a.9635.9635,0,1,1,0,.001Z" transform="translate(0.001)"/><path class="cls-1" d="M29.658,0H-.001V48.4H40.335V10.678Zm.61,3.565,6.5,6.5h-6.5Zm7.98,42.744H2.087V2.087H28.18V12.155H38.248Z" transform="translate(0.001)"/></svg>