<svg id="Layer_1" data-name="Layer 1" xmlns="http://www.w3.org/2000/svg" viewBox="0 0 24 24"><defs><style>.cls-1{fill:none;}.cls-2{fill:#fff;}</style></defs><path class="cls-1" d="M0,0H24V24H0Z"/><path class="cls-2" d="M20,18V17a1.9973,1.9973,0,0,0,1.99-2L22,5a2.0059,2.0059,0,0,0-2-2H4A2.0059,2.0059,0,0,0,2,5V15a2.0059,2.0059,0,0,0,2,2v1H0v2H24V18ZM4,5H20V15H4Z"/><path class="cls-2" d="M4.8579,9.954H5.9725v3.6413H4.8579ZM6.9387,8.3935h1.04v5.2018h-1.04ZM9.02,11.366h1.04v2.2293H9.02Z"/><path class="cls-1" d="M4,7.5356h8.9176v8.9176H4Z"/><path class="cls-2" d="M17.9609,6.52a.7206.7206,0,0,0-.6549,1.0182L15.8411,9.01a.699.699,0,0,0-.3065-.0682.683.683,0,0,0-.3029.0682l-.5984-.5979a.7187.7187,0,1,0-1.37-.3029.7583.7583,0,0,0,.0794.3331l-1.0137.9993A.7185.7185,0,1,0,12.7,10.07a.7021.7021,0,0,0-.0493-.2537l1.0561-1.041a.7351.7351,0,0,0,.2763.053.7561.7561,0,0,0,.3065-.0681l.5943.5943a.7.7,0,0,0-.0681.3065.7192.7192,0,0,0,1.438,0,.6965.6965,0,0,0-.0681-.303L17.65,7.8859a.7.7,0,0,0,.3065.0681.7174.7174,0,1,0,.0037-1.4347ZM11.98,10.2975a.227.227,0,1,1,.227-.227.227.227,0,0,1-.227.227Zm2.0024-1.9609a.227.227,0,1,1,.227-.227.227.227,0,0,1-.227.227Zm1.5519,1.5519a.227.227,0,1,1,.227-.227.227.227,0,0,1-.227.227Zm2.4265-2.4227a.2271.2271,0,1,1,.227-.227.2271.2271,0,0,1-.227.227Z"/></svg>