<?xml version="1.0" encoding="utf-8"?>
<!-- Generator: Adobe Illustrator 24.1.0, SVG Export Plug-In . SVG Version: 6.00 Build 0)  -->
<svg version="1.1" id="Layer_1" xmlns="http://www.w3.org/2000/svg" xmlns:xlink="http://www.w3.org/1999/xlink" x="0px" y="0px"
	 viewBox="0 0 46.6 46.4" style="enable-background:new 0 0 46.6 46.4;" xml:space="preserve">
<style type="text/css">
	.st0{fill:#FFFFFF;}
</style>
<path class="st0" d="M43.3,33.7L43,33.2c-1-1.7-3.2-5.7-5.5-9.1C36.7,23,36,21.9,35.3,21c-1.1-1.5-2.5-3.5-2.5-4
	c0.1-2.5,0-8.4,0-10.2h1.5V4.1H15.5v2.6h2c0,1.8-0.1,7.7,0,10.2c0,0.6-1.4,2.5-2.6,4c-0.7,1-1.5,2-2.3,3.2c-2.3,3.4-4.5,7.4-5.5,9.1
	l-0.3,0.5c-1,1.8-1,4,0,5.8c0.7,1.2,1.9,2,3.3,1.9H40c1.4,0,2.6-0.7,3.3-1.9C44.3,37.6,44.3,35.5,43.3,33.7z M41.5,38.4
	c-0.3,0.5-0.8,0.9-1.5,0.9H10.2c-0.6,0-1.2-0.3-1.5-0.9c-0.6-1.1-0.6-2.5,0-3.6l0.3-0.5c0.9-1.7,3.1-5.6,5.4-8.9
	c0.8-1.1,1.5-2.2,2.2-3.1c2-2.7,3-4.2,3-5.4c-0.1-2.2,0-7.4,0-9.6h10.9c0,2.2,0.1,7.4,0,9.6c0,1.2,1,2.7,3,5.4
	c0.7,0.9,1.5,2,2.2,3.1c2.3,3.3,4.5,7.2,5.4,8.9l0.3,0.5C42,35.9,42,37.2,41.5,38.4L41.5,38.4z"/>
<path class="st0" d="M32.5,24c0,0,1.1,0.9-3.9,1.1s-5.9,1.9-8.7,1.5C17,26.3,17.8,24,17.8,24c-0.3,0.6-0.1-0.4-7,10.9
	c-1.2,3.1,0,3.2,1.8,3.2h25c1.9-0.1,3.1-0.1,1.8-3.2C36,29.4,32.8,24.5,32.5,24z M17.9,32.6c-1.2-0.3-1.9-1.5-1.6-2.7
	c0.2-0.8,0.8-1.4,1.6-1.6c1.2,0.3,1.9,1.5,1.6,2.7C19.3,31.8,18.7,32.4,17.9,32.6z M17.9,36.4c-0.4,0.1-0.9-0.1-1-0.6
	c-0.1-0.4,0.1-0.9,0.6-1c0.4-0.1,0.9,0.1,1,0.6c0,0.1,0,0.1,0,0.2C18.6,36,18.3,36.3,17.9,36.4L17.9,36.4z M23.3,31.5
	c-0.7,0.2-1.5-0.3-1.6-1c-0.2-0.7,0.3-1.5,1-1.6c0.7-0.2,1.5,0.3,1.6,1c0,0.1,0,0.2,0,0.3C24.4,30.8,23.9,31.4,23.3,31.5L23.3,31.5z
	 M27.4,35.8c-0.6,0.1-1.1-0.2-1.3-0.8c-0.1-0.6,0.2-1.1,0.8-1.3c0.6-0.1,1.1,0.2,1.3,0.8c0,0.1,0,0.2,0,0.3
	C28.2,35.3,27.9,35.8,27.4,35.8L27.4,35.8z M32.5,33.9c-1.1-0.2-1.9-1.2-1.8-2.3c-0.1-1.1,0.7-2.2,1.8-2.3c1.1,0.2,1.9,1.2,1.8,2.3
	C34.4,32.7,33.6,33.7,32.5,33.9L32.5,33.9z M34.4,36.4c-0.4,0.1-0.9-0.1-1-0.6c-0.1-0.4,0.1-0.9,0.6-1c0.4-0.1,0.9,0.1,1,0.6
	c0,0.1,0,0.1,0,0.2C35,36,34.7,36.3,34.4,36.4L34.4,36.4z"/>
<rect x="6" class="st0" width="1.4" height="8.4"/>
<rect x="2.5" y="3.5" class="st0" width="8.4" height="1.4"/>
</svg>
